<?xml version="1.0" encoding="UTF-8"?><svg id="Ebene_1" xmlns="http://www.w3.org/2000/svg" width="322.87" height="123.35" viewBox="0 0 322.87 123.35"><defs><style>.cls-1{fill:#fc96f4;}</style></defs><path class="cls-1" d="M64.49,120.32c-4.41,0-6.93-2.84-8.13-4.23l2.08-2.37c1.28,1.71,3.65,3.61,6.38,3.61s4.92-1.57,4.92-4.23-2.81-3.65-4.08-4.16c-1.31-.51-3.06-1.2-4.01-1.68-2.59-1.2-4.16-3.21-4.16-6.16,0-4.48,4.08-6.71,8.09-6.71s6.53,2.52,7.22,3.24l-1.86,2.41c-1.24-1.31-3.06-2.7-5.54-2.7s-4.37,1.17-4.37,3.5,1.71,3.21,3.24,3.83l4.63,1.93c2.59,1.2,4.37,3.28,4.37,6.27,0,4.89-4.37,7.44-8.79,7.44Z"/><path class="cls-1" d="M100.26,97.68v22.2h-3.54v-22.2h-7.11v-2.95h17.72v2.95h-7.07Z"/><path class="cls-1" d="M142.66,117.26c-1.71,1.97-4.23,3.06-7.55,3.06s-5.87-1.09-7.55-3.06c-1.75-2.04-2.04-4.52-2.04-7.66v-14.87h3.57v14.55c0,2.11.04,4.16,1.17,5.65,1.02,1.39,2.66,2.22,4.85,2.22s3.79-.84,4.85-2.22c1.13-1.49,1.17-3.57,1.17-5.65v-14.55h3.54v14.87c0,3.14-.29,5.61-2.01,7.66Z"/><path class="cls-1" d="M173.65,119.88h-7.58v-25.15h7.58c7.55,0,13.31,4.78,13.31,12.58s-5.76,12.58-13.31,12.58ZM173.65,97.75h-4.05v19.07h4.05c5.69,0,9.7-3.72,9.7-9.51s-4.01-9.55-9.7-9.55Z"/><path class="cls-1" d="M206.76,119.88v-25.15h3.54v25.15h-3.54Z"/><path class="cls-1" d="M242.71,120.32c-7.07,0-12.98-4.92-12.98-12.98s5.91-12.98,12.98-12.98,12.98,4.92,12.98,12.98-5.91,12.98-12.98,12.98ZM242.71,97.43c-5.14,0-9.37,3.68-9.37,9.84s4.27,9.84,9.37,9.84,9.37-3.72,9.37-9.84-4.23-9.84-9.37-9.84Z"/><path class="cls-1" d="M282.09,4.8v1.5s-4.13-.02-4.13-.02v2.38s3.87.01,3.87.01v1.49s-3.89-.01-3.89-.01v2.73s4.22.02,4.22.02v1.5s-6.05-.02-6.05-.02l.04-9.61,5.93.02Z"/><path class="cls-1" d="M290.56,13.42c-.42,1.73-1.98,2.57-3.95,2.08-1.6-.39-2.51-1.4-2.94-2.26l1.15-1.07c.53.98,1.31,1.63,2.19,1.84.87.21,1.56-.06,1.76-.87.18-.73-.25-1.09-.97-1.61l-1.32-.94c-.91-.65-1.41-1.54-1.14-2.67.4-1.62,1.95-2.43,3.91-1.95,1.32.33,2.15,1.12,2.56,1.82l-1.15,1.05c-.46-.69-1.08-1.25-1.88-1.45-.77-.19-1.47.04-1.64.73-.17.68.35,1.08.79,1.4l1.4,1.02c1.18.86,1.51,1.72,1.23,2.88Z"/><path class="cls-1" d="M293.92,8.97l.65-1.31,6.33,3.16-.65,1.31-2.35-1.18-3.64,7.29-1.61-.8,3.64-7.29-2.37-1.18Z"/><path class="cls-1" d="M305.52,21.57c1.04.07,2.1.03,2.78-.63.7-.66.72-1.53-.03-2.31-.83-.88-1.86-.85-2.55-.82l.22-1.36c.53-.08,2.1-.21,3.5,1.26,1.41,1.48,1.5,3.22.27,4.39-1.19,1.13-2.96,1.03-3.79.99l-2.93-.17,3.06,3.22-1.08,1.03-4.66-4.91.67-.97,4.52.29Z"/><path class="cls-1" d="M316.03,26.7c1.29,2.36-.28,4.57-2.49,5.78-2.21,1.21-4.92,1.34-6.21-1.02-1.3-2.37.27-4.58,2.48-5.79,2.21-1.21,4.92-1.33,6.21,1.03ZM314.66,27.45c-.67-1.22-2.22-1.12-3.94-.18-1.71.94-2.64,2.19-1.97,3.41.67,1.22,2.22,1.1,3.93.17,1.72-.94,2.65-2.18,1.98-3.4Z"/><path class="cls-1" d="M314.63,38.16c.87.57,1.81,1.06,2.73.83.93-.23,1.38-.97,1.12-2.03-.29-1.18-1.2-1.66-1.81-1.98l.87-1.07c.51.19,1.93.86,2.42,2.83.49,1.99-.29,3.54-1.94,3.95-1.6.39-3.08-.58-3.78-1.02l-2.46-1.6,1.06,4.31-1.45.36-1.62-6.57,1.07-.51,3.78,2.5Z"/><path class="cls-1" d="M319.69,44.33h1.36s.03,3.55.03,3.55l-9.61.09-.02-1.75,8.24-.07-.02-1.81Z"/><path class="cls-1" d="M45.3,26.22l-.95.29c-6.87-13.36-13.65-18.52-20.43-18.52-6.11,0-10.21,4.01-10.21,10.12,0,8.4,8.3,11.93,16.9,16.23,9.45,4.68,19.19,10.12,19.19,23.58,0,14.99-11.84,20.81-25.58,20.81-7.06,0-14.41-1.62-20.24-4.01l-2.2-18.42.95-.29c8.21,14.41,15.46,20.71,24.15,20.71,8.11,0,12.31-5.63,12.31-12.22,0-8.78-7.44-13.08-15.65-16.99C13.71,42.64,3.78,37.58,3.78,24.98,3.78,11.14,15.33,5.98,27.74,5.98c5.54,0,10.88,1.05,15.37,2.58l2.2,17.66Z"/><path class="cls-1" d="M58.2,66.41v-33.22h-5.25v-.67l16.51-12.12h.95v10.88h11.93v1.91h-11.93v32.84c0,5.15,2.58,7.35,6.78,7.35,3.34,0,5.63-1.43,5.92-1.62l.29.29c-2.39,3.72-7.06,6.68-13.36,6.68s-11.84-3.05-11.84-12.31Z"/><path class="cls-1" d="M106.33,78.72c-13.46,0-22.24-10.31-22.24-23.58,0-15.18,10.98-25.29,22.72-25.29s19.66,10.4,19.28,19.38l-29.68-.1v.29c0,14.32,6.78,19.95,16.23,19.95,6.11,0,10.31-2.48,12.89-5.54l.57.29c-2.58,8.4-9.35,14.6-19.76,14.6ZM96.4,47.51l17.56-.38v-2.2c0-9.26-2.67-13.36-7.64-13.36-6.2,0-9.45,7.16-9.93,15.94Z"/><path class="cls-1" d="M131.96,77.1c1.72-3.05,2.58-6.4,2.58-13.84v-30.07h-6.01v-1.91h6.01v-4.49c0-14.6,9.64-23.77,21.38-23.77,2.96,0,5.92.57,7.73,1.15l1.15,11.36-.57.19c-2.67-4.01-6.78-10.98-10.79-10.98-3.63,0-6.68,6.11-6.68,16.7v9.83h11.07v1.91h-11.07v30.07c0,7.25.95,10.79,2.48,13.84v.19h-17.28v-.19Z"/><path class="cls-1" d="M226.63,77.29h-16.61v-.19c1.62-4.96,2.2-9.26,2.2-17.56v-11.07c0-6.59-1.72-10.4-4.49-13.65v-.19l16.32-5.25v9.35l.38.1c3.34-4.58,8.11-8.97,15.65-8.97,8.59,0,13.84,5.25,13.84,13.55v16.04c0,8.4.38,12.7,2.29,17.66v.19h-16.7v-.19c1.72-4.96,2.2-9.64,2.2-17.47v-14.6c0-4.77-2.2-8.78-7.73-8.78-3.82,0-7.25,2-9.54,4.77v18.52c0,8.11.38,12.6,2.2,17.56v.19Z"/><path class="cls-1" d="M293.78,42.73l-.67.19c-5.44-8.3-10.21-11.36-14.79-11.36s-7.44,2.86-7.44,6.68c0,5.44,6.01,7.44,12.31,10.12,6.68,2.86,13.55,6.59,13.55,16.04,0,10.02-8.4,14.32-18.71,14.32-5.35,0-10.69-1.15-14.7-2.67l-1.15-12.79.67-.19c5.44,9.35,10.69,13.94,16.89,13.94,5.73,0,7.92-3.72,7.92-7.25,0-5.06-4.39-7.35-10.69-10.12-6.49-2.86-14.03-6.3-14.03-16.04s8.5-13.74,17.94-13.74c4.49,0,8.97.86,11.84,1.81l1.05,11.07Z"/><path class="cls-1" d="M190.09,32.01c2-.65,8.04-2.72,8.04-2.72l.08,38.52c0,2.29.95,4.2,3.91,4.2,1.24,0,2.67-.38,4.2-1.53l.19.29c-1.43,3.15-4.49,7.83-11.26,7.83-5.35,0-8.3-2.86-8.97-6.68-2.86,3.63-10.25,7.25-15.09,7.25-13.06,0-16.06-18.12-11.9-32.26,3.46-11.75,15.29-21.1,30.8-14.9ZM186.2,68.84c.22-6.8.4-32.46.4-32.46,0,0,0-1.5-1.28-2.52-16.4-11.49-16.43,26.04-13.4,32.23,4.72,10.95,12.85,3.8,14.28,2.75Z"/></svg>